<svg width="254" height="254" viewBox="0 0 254 254" fill="none" xmlns="http://www.w3.org/2000/svg">
<path d="M250.452 115.587H126.589C120.523 115.587 115.587 120.507 115.587 126.589C115.587 132.671 120.508 137.591 126.589 137.591H163.614C158.862 153.544 144.07 165.218 126.589 165.218C104.433 165.218 86.5698 146.454 88.052 123.976C89.3356 104.585 105.243 88.9531 124.664 88.021C134.856 87.532 144.559 90.9548 152.092 97.5866C153.147 98.5187 154.721 98.4728 155.714 97.4796L167.526 85.6678C168.595 84.5982 168.565 82.8409 167.434 81.8324C156.233 71.5945 141.839 66.0018 126.574 66.0018C93.0946 66.0018 65.437 94.1026 65.9565 127.582C66.476 160.557 93.4613 187.237 126.574 187.237C156.249 187.237 180.988 165.799 186.168 137.621H197.338C192.035 171.911 162.315 198.239 126.559 198.239C86.9977 198.239 54.8324 166.013 54.9393 126.436C55.0463 88.3572 85.4849 56.6502 123.518 55.0763C142.634 54.2817 160.863 60.9898 174.86 73.8101C175.899 74.7728 177.519 74.7117 178.512 73.6879L190.217 61.7691C191.271 60.6995 191.21 58.9728 190.11 57.949C172.583 41.7059 149.877 32.8585 125.917 33.0113C75.6749 33.3474 34.2954 73.8866 32.9661 124.129C31.5755 176.877 74.101 220.243 126.543 220.243C174.448 220.243 214.054 184.074 219.51 137.621H230.527C225.026 190.14 180.483 231.214 126.543 231.214C68.6611 231.214 21.6127 183.967 21.9641 126.008C22.285 70.8763 66.0024 24.989 121.073 22.1774C150.091 20.6952 177.748 30.9942 198.637 50.8894C199.691 51.8979 201.341 51.8979 202.365 50.8589L214.131 39.0471C215.17 38.008 215.17 36.2966 214.116 35.2728C190.752 12.7493 160.237 0.311032 127.812 0.00542189C58.2552 -0.636358 0.693769 55.7792 0.00614891 125.321C-0.681471 195.733 56.391 253.172 126.589 253.172C169.986 253.172 208.37 231.245 231.184 197.857V242.186C231.184 248.252 236.104 253.188 242.186 253.188C248.252 253.188 253.188 248.267 253.188 242.186V118.322C253.188 116.825 251.965 115.602 250.468 115.602L250.452 115.587Z" fill="#F9A81A"/>
</svg>
